<svg height="512pt" viewBox="0 0 512.00062 512" width="512pt" xmlns="http://www.w3.org/2000/svg"><path d="m432.230469 89.761719c-2.628907 0-5.210938-1.070313-7.070313-2.929688-.460937-.460937-.878906-.972656-1.238281-1.523437-.371094-.539063-.671875-1.117188-.921875-1.71875-.25-.609375-.449219-1.238282-.570312-1.871094-.128907-.648438-.199219-1.308594-.199219-1.957031 0-.652344.070312-1.3125.199219-1.953125.121093-.636719.320312-1.269532.570312-1.867188.25-.609375.550781-1.191406.921875-1.730468.359375-.550782.777344-1.058594 1.238281-1.519532 2.320313-2.320312 5.769532-3.390625 9.019532-2.730468.640624.128906 1.269531.320312 1.871093.570312.609375.25 1.191407.558594 1.730469.917969.550781.359375 1.058594.78125 1.519531 1.242187.460938.460938.878907.96875 1.238281 1.519532.363282.539062.671876 1.121093.921876 1.730468.25.597656.449218 1.230469.570312 1.867188.128906.640625.199219 1.300781.199219 1.953125 0 .648437-.070313 1.308593-.199219 1.957031-.121094.632812-.320312 1.261719-.570312 1.871094-.25.601562-.558594 1.179687-.921876 1.71875-.359374.550781-.777343 1.0625-1.238281 1.523437-.460937.457031-.96875.878907-1.519531 1.25-.539062.359375-1.121094.667969-1.730469.917969-.601562.25-1.230469.441406-1.871093.570312-.640626.128907-1.300782.191407-1.949219.191407zm0 0"/><path d="m79.769531 89.761719c-.648437 0-1.308593-.0625-1.949219-.191407-.640624-.128906-1.269531-.320312-1.871093-.570312-.609375-.25-1.1875-.558594-1.730469-.917969-.546875-.371093-1.058594-.792969-1.519531-1.25-.457031-.460937-.878907-.972656-1.238281-1.523437-.359376-.539063-.671876-1.117188-.921876-1.71875-.25-.609375-.449218-1.238282-.570312-1.871094-.128906-.648438-.199219-1.308594-.199219-1.957031 0-.652344.070313-1.3125.199219-1.953125.121094-.636719.320312-1.269532.570312-1.867188.25-.609375.5625-1.191406.921876-1.730468.359374-.550782.78125-1.058594 1.238281-1.519532.460937-.460937.972656-.882812 1.519531-1.242187.542969-.359375 1.121094-.667969 1.730469-.917969.601562-.25 1.230469-.441406 1.871093-.570312 1.289063-.261719 2.621094-.261719 3.898438 0 .640625.128906 1.273438.320312 1.882812.570312.597657.25 1.179688.558594 1.71875.917969.550782.359375 1.058594.78125 1.519532 1.242187.460937.460938.878906.96875 1.242187 1.519532.367188.539062.667969 1.121093.917969 1.730468.25.597656.449219 1.230469.582031 1.867188.128907.640625.1875 1.300781.1875 1.953125 0 .648437-.058593 1.308593-.1875 1.957031-.132812.632812-.332031 1.261719-.582031 1.871094-.25.601562-.550781 1.179687-.917969 1.71875-.363281.550781-.78125 1.0625-1.242187 1.523437-.460938.457031-.96875.878907-1.519532 1.25-.539062.359375-1.121093.667969-1.71875.917969-.609374.25-1.242187.441406-1.882812.570312-.636719.128907-1.296875.191407-1.949219.191407zm0 0"/><path d="m474.523438 377.617188c-3.902344-3.90625-10.234376-3.90625-14.140626 0l-6.792968 6.792968-30.976563-30.96875 20.777344-20.773437c1.875-1.875 2.929687-4.417969 2.929687-7.070313s-1.054687-5.195312-2.929687-7.070312l-43.511719-43.503906c-3.902344-3.90625-10.234375-3.90625-14.140625 0l-6.953125 6.953124-22.316406-23.46875 152.421875-144.898437c2.324219-2.207031 3.449219-5.398437 3.019531-8.578125l-11.398437-84.742188c-.097657-.882812-2.34375-7.234374-8.8125-8.800781l-84.738281-11.3984372c-3.175782-.4296878-6.371094.6953122-8.582032 3.0195312l-142.378906 149.738281-142.378906-149.738281c-2.210938-2.324219-5.394532-3.449219-8.578125-3.0195312l-84.679688 11.3867182c-7.445312 1.660157-8.789062 8.070313-8.875 8.8125l-11.3984372 84.742188c-.4296878 3.175781.6953122 6.371094 3.0195312 8.578125l152.421875 144.898437-22.316406 23.46875-6.953125-6.953124c-3.90625-3.90625-10.234375-3.90625-14.140625 0l-43.511719 43.503906c-1.875 1.875-2.929687 4.417968-2.929687 7.070312s1.054687 5.195313 2.929687 7.070313l20.777344 20.773437-30.976563 30.96875-6.792968-6.792968c-3.90625-3.902344-10.234376-3.90625-14.140626 0l-34.546874 34.542968c-1.875 1.875-2.929688 4.417969-2.929688 7.070313 0 2.652343 1.054688 5.195312 2.929688 7.070312l82.71875 82.710938c1.953124 1.953125 4.511718 2.929687 7.070312 2.929687s5.117188-.976562 7.070312-2.929687l34.546876-34.542969c1.875-1.875 2.929687-4.417969 2.929687-7.070312 0-2.652344-1.054687-5.195313-2.929687-7.070313l-6.792969-6.792969 30.976562-30.96875 20.773438 20.773438c1.953125 1.953125 4.511719 2.929687 7.074219 2.929687 2.558593 0 5.117187-.976562 7.070312-2.929687l43.507812-43.503906c1.875-1.875 2.929688-4.417969 2.929688-7.070313s-1.054688-5.195313-2.929688-7.070313l-6.953124-6.953124 26.007812-24.726563 26.007812 24.726563-6.953124 6.949218c-1.875 1.875-2.929688 4.421875-2.929688 7.070313 0 2.652343 1.054688 5.199219 2.929688 7.074219l43.511718 43.503906c1.949219 1.953125 4.511719 2.925781 7.070313 2.925781 2.558593 0 5.117187-.972656 7.070312-2.925781l20.777344-20.777344 30.972656 30.972656-6.792969 6.792969c-1.875 1.875-2.929687 4.417969-2.929687 7.070313 0 2.652343 1.054687 5.195312 2.929687 7.070312l34.546876 34.542969c1.953124 1.953125 4.511718 2.925781 7.070312 2.925781s5.117188-.972656 7.070312-2.925781l82.71875-82.710938c1.875-1.875 2.929688-4.417969 2.929688-7.070312 0-2.652344-1.054688-5.195313-2.929688-7.070313zm-381.804688 110.183593-68.574219-68.570312 20.402344-20.398438 68.578125 68.566407zm20.683594-48.40625-40.847656-40.84375 30.976562-30.96875 40.84375 40.839844zm295.953125-418.804687 72.324219 9.730468 9.730468 72.3125-148.722656 141.378907-29.527344-31.050781 92.558594-92.550782c3.90625-3.90625 3.90625-10.238281 0-14.144531-3.902344-3.902344-10.234375-3.902344-14.140625 0l-92.203125 92.195313-29.578125-31.101563zm-379.035157 9.730468 72.324219-9.730468 261.992188 275.53125-27.167969 27.164062-217.046875-217.019531c-3.90625-3.902344-10.238281-3.902344-14.140625 0-3.90625 3.90625-3.90625 10.238281 0 14.144531l217.042969 217.015625-27.167969 27.167969-275.5625-261.960938zm117.042969 265.800782 22.664063-23.832032 28.457031 27.050782-23.953125 23.949218zm39.003907 126.003906-96.542969-96.527344 29.367187-29.363281 96.542969 96.53125zm29.476562-57.53125-27.167969-27.164062 24.308594-24.304688 28.503906 27.09375zm109.792969 57.53125-29.367188-29.359375 96.539063-96.53125 29.367187 29.363281zm72.960937 17.269531-30.972656-30.972656 40.847656-40.839844 30.972656 30.96875zm20.683594 48.40625-20.402344-20.402343 68.574219-68.566407 20.40625 20.398438zm0 0"/></svg>